# xmcd
#
# Track frame offsets:
#	150
#	18862
#	33861
#	47358
#	65394
#	79567
#	94703
#	110115
#	129462
#	147573
#	163025
#	180686
#	191259
#	202057
#	214394
#
# Disc length: 3102 seconds
#
# Revision: 0
# Processed by: cddbd v1.5.1PL2 Copyright (c) Steve Scherf et al.
# Submitted via: dBpowerAMP V4.0
#
DISCID=ce0c1c0f
DTITLE=John Fogerty - Live Austin City Limits 2004
DYEAR=2004
DGENRE=Country
TTITLE0=Born on the Bayou
TTITLE1=Green River
TTITLE2=Cotton Fields
TTITLE3=Sugar-Sugar (In My Life)
TTITLE4=I Will Walk with You
TTITLE5=Rhubarb Pie
TTITLE6=Down on the Corner
TTITLE7=Deja Vu (All Over Again)
TTITLE8=A Hundred and Ten Degrees in the Shade
TTITLE9=Hot Rod Heart
TTITLE10=The Old Man Down the Road
TTITLE11=Travelin' Band
TTITLE12=Bad Moon Rising
TTITLE13=Fortunate Son
TTITLE14=Proud Mary
EXTD=
EXTT0=
EXTT1=
EXTT2=
EXTT3=
EXTT4=
EXTT5=
EXTT6=
EXTT7=
EXTT8=
EXTT9=
EXTT10=
EXTT11=
EXTT12=
EXTT13=
EXTT14=
PLAYORDER=
